<svg width="150" height="150" viewBox="0 0 150 150" fill="none" xmlns="http://www.w3.org/2000/svg">
<g clip-path="url(#clip0_2327_143)">
<circle cx="75" cy="75" r="75" transform="rotate(-180 75 75)" fill="#6C31CC"/>
<path fill-rule="evenodd" clip-rule="evenodd" d="M103.05 84.1415L98.745 80.3896C95.6589 83.0479 92.0818 85.1323 88.0138 86.6427C83.9457 88.1531 79.5971 88.9083 74.9679 88.9083C70.3388 88.9083 65.9901 88.1531 61.9221 86.6427C57.854 85.1323 54.2769 83.0479 51.1908 80.3896L46.8857 84.098C50.5329 87.259 54.7413 89.7348 59.5107 91.5256C64.2802 93.3163 69.4283 94.2105 74.9553 94.2081C80.4822 94.2057 85.6332 93.3139 90.4083 91.5328C95.1834 89.7517 99.3973 87.288 103.05 84.1415ZM120.936 99.5042L116.63 95.7958C111.224 100.443 104.964 104.083 97.8486 106.714C90.7337 109.346 83.1068 110.661 74.9679 110.658C66.829 110.656 59.2007 109.341 52.083 106.714C44.9653 104.087 38.7061 100.448 33.3054 95.7958L29.0003 99.5006C34.8583 104.578 41.6968 108.588 49.5159 111.532C57.335 114.475 65.819 115.95 74.9679 115.954C84.1168 115.959 92.6008 114.488 100.42 111.539C108.239 108.591 115.078 104.579 120.936 99.5042Z" fill="white"/>
<circle cx="75" cy="48" r="15" fill="white"/>
<circle cx="75" cy="56" r="10" fill="#6C31CC"/>
</g>
<defs>
<clipPath id="clip0_2327_143">
<rect width="150" height="150" fill="white" transform="matrix(-1 0 0 -1 150 150)"/>
</clipPath>
</defs>
</svg>
